{"title":"Making A Murderer S01 Season 1 720p WebRip ReEnc-DeeJayAhmed","uid":13240045,"size":4668335702,"categoryP":"video","categoryS":"hd___tv_shows","magnet":"?xt=urn:btih:1600713647b25ed57eaeb2ca4a27a1a617063e9b&amp;dn=Making+A+Murderer+S01+Season+1+720p+WebRip+ReEnc-DeeJayAhmed&amp;tr=udp%3A%2F%2Ftracker.leechers-paradise.org%3A6969&amp;tr=udp%3A%2F%2Fzer0day.ch%3A1337&amp;tr=udp%3A%2F%2Fopen.demonii.com%3A1337&amp;tr=udp%3A%2F%2Ftracker.coppersurfer.tk%3A6969&amp;tr=udp%3A%2F%2Fexodus.desync.com%3A6969","seeders":153,"leechers":36,"uploader":"DeeJayPirate","files":22,"time":1453044047,"description":"DeeJayAhmed  \nhttps://www.DeeJayAhmed.com\r\r\nKeep Seeding!!=)) \r\nDo Comment On The A/V Quality Considering The Size Of The File..!\r\n\r\nVideo \r\nID : 1 \r\nFormat : AVC \r\nFormat/Info : Advanced Video Codec \r\nFormat profile :    \r\nFormat settings, CABAC : Yes \r\nFormat settings, ReFrames : 8 frames \r\nCodec ID : V_MPEG4/ISO/AVC \r\nDuration : 1h 4mn \r\nBit rate : 948 Kbps \r\nWidth : 1 280 pixels \r\nHeight : 720 pixels \r\nDisplay aspect ratio : 16:9 \r\nFrame rate mode : Constant \r\nFrame rate : 29.970 (30000/1001) fps \r\nColor space : YUV \r\nChroma subsampling : 4:2:0 \r\nBit depth : 8 bits \r\nScan type : Progressive \r\nBits/(Pixel*Frame) : 0.034 \r\nStream size : 438 MiB (93%) \r\nDefault : Yes \r\nForced : No \r\n\r\nAudio \r\nID : 2 \r\nFormat : AAC \r\nFormat/Info : Advanced Audio Codec \r\nFormat profile : HE-AAC / LC \r\nCodec ID : A_AAC \r\nDuration : 1h 4mn \r\nBit rate : 72.0 Kbps \r\nChannel(s) : 2 channels \r\nChannel positions : Front: L R \r\nSampling rate : 44.1 KHz / 22.05 KHz \r\nFrame rate : 21.533 fps (1024 spf) \r\nCompression mode : Lossy \r\nDelay relative to video : 33ms \r\nStream size : 33.8 MiB (7%) \r\nLanguage : English \r\nDefault : Yes \r\nForced : No","torrent":{"xt":"urn:btih:1600713647b25ed57eaeb2ca4a27a1a617063e9b","amp;dn":"Making+A+Murderer+S01+Season+1+720p+WebRip+ReEnc-DeeJayAhmed","amp;tr":["udp%3A%2F%2Ftracker.leechers-paradise.org%3A6969","udp%3A%2F%2Fzer0day.ch%3A1337","udp%3A%2F%2Fopen.demonii.com%3A1337","udp%3A%2F%2Ftracker.coppersurfer.tk%3A6969","udp%3A%2F%2Fexodus.desync.com%3A6969"],"infoHash":"1600713647b25ed57eaeb2ca4a27a1a617063e9b","infoHashBuffer":{"type":"Buffer","data":[22,0,113,54,71,178,94,213,126,174,178,202,74,39,161,166,23,6,62,155]},"announce":[],"urlList":[]}}